<svg 
 xmlns="http://www.w3.org/2000/svg"
 xmlns:xlink="http://www.w3.org/1999/xlink"
 width="16px" height="14px">
<path fill-rule="evenodd"  fill="rgb(96, 101, 128)"
 d="M15.573,13.259 L0.276,13.259 C0.206,13.245 0.143,13.209 0.095,13.156 C0.047,13.103 0.017,13.037 0.010,12.966 C-0.009,12.897 -0.001,12.824 0.031,12.760 C0.063,12.696 0.117,12.646 0.183,12.619 C0.303,12.619 0.316,12.486 0.316,12.366 L0.316,6.450 C0.305,6.343 0.326,6.236 0.376,6.141 C0.426,6.046 0.502,5.968 0.596,5.917 C1.257,5.521 1.991,5.263 2.755,5.157 C3.301,4.997 3.861,4.957 4.447,4.904 L4.447,3.105 C4.461,3.026 4.461,2.945 4.447,2.865 C4.412,2.700 4.438,2.527 4.522,2.380 C4.605,2.232 4.740,2.121 4.900,2.066 C5.663,1.620 6.504,1.326 7.378,1.200 C8.165,1.080 8.951,1.040 9.737,0.973 L9.937,0.973 L9.937,0.387 C9.931,0.337 9.936,0.286 9.952,0.239 C9.967,0.191 9.993,0.147 10.027,0.110 C10.062,0.074 10.104,0.045 10.150,0.026 C10.196,0.007 10.247,-0.002 10.297,0.000 C10.345,0.002 10.393,0.013 10.437,0.034 C10.481,0.054 10.520,0.084 10.552,0.120 C10.585,0.156 10.609,0.198 10.625,0.244 C10.641,0.290 10.647,0.338 10.643,0.387 L10.643,0.973 L12.709,1.173 L12.709,0.680 C12.701,0.628 12.704,0.576 12.719,0.526 C12.734,0.476 12.759,0.430 12.793,0.390 C12.827,0.351 12.870,0.320 12.917,0.298 C12.965,0.277 13.016,0.266 13.068,0.267 C13.268,0.267 13.415,0.427 13.415,0.680 L13.415,1.346 C13.681,1.453 13.948,1.519 14.201,1.639 C14.540,1.822 14.869,2.022 15.187,2.239 C15.258,2.289 15.315,2.358 15.350,2.438 C15.385,2.517 15.398,2.605 15.387,2.692 C15.387,5.890 15.387,9.088 15.387,12.286 L15.387,12.553 L15.573,12.553 C15.827,12.553 16.000,12.699 16.000,12.899 C16.000,13.099 15.840,13.259 15.573,13.259 ZM4.420,5.637 C3.914,5.637 3.421,5.717 2.941,5.797 C2.330,5.875 1.738,6.065 1.196,6.356 C1.129,6.356 1.049,6.450 1.049,6.503 C1.036,7.009 1.036,7.529 1.036,8.075 C2.107,7.627 3.259,7.401 4.420,7.409 L4.420,5.637 ZM4.420,8.102 L3.474,8.102 C2.681,8.162 1.908,8.375 1.196,8.728 C1.144,8.750 1.102,8.788 1.073,8.836 C1.044,8.884 1.031,8.939 1.036,8.995 C1.036,10.088 1.036,11.180 1.036,12.273 C1.036,12.273 1.036,12.393 1.036,12.459 L4.420,12.513 L4.420,8.102 ZM7.778,1.866 C6.930,1.975 6.108,2.237 5.353,2.639 C5.286,2.667 5.229,2.715 5.190,2.777 C5.152,2.840 5.134,2.912 5.140,2.985 C5.140,6.086 5.140,9.195 5.140,12.313 L5.140,12.553 L9.897,12.553 L9.910,1.666 C9.191,1.666 8.471,1.773 7.778,1.866 ZM12.695,2.106 C12.695,1.986 12.695,1.932 12.549,1.932 C12.402,1.932 12.149,1.853 11.949,1.839 C11.523,1.839 11.083,1.759 10.617,1.719 L10.617,2.545 L12.695,2.545 L12.695,2.106 ZM14.667,2.865 C14.671,2.822 14.666,2.778 14.652,2.737 C14.638,2.696 14.616,2.658 14.587,2.625 C14.238,2.368 13.838,2.187 13.415,2.092 L13.415,2.505 L13.588,2.505 C13.675,2.509 13.758,2.545 13.820,2.607 C13.882,2.668 13.918,2.751 13.921,2.839 C13.923,2.927 13.893,3.013 13.836,3.081 C13.780,3.150 13.702,3.196 13.615,3.212 L10.643,3.212 L10.643,4.971 L12.695,4.971 L12.695,4.011 C12.696,3.958 12.709,3.905 12.732,3.857 C12.756,3.808 12.790,3.766 12.832,3.733 C12.875,3.700 12.924,3.676 12.976,3.665 C13.028,3.653 13.083,3.653 13.135,3.665 C13.217,3.684 13.290,3.732 13.339,3.801 C13.388,3.870 13.410,3.954 13.402,4.038 L13.402,4.971 L13.615,4.971 C13.684,4.973 13.750,5.000 13.801,5.046 C13.852,5.093 13.885,5.155 13.895,5.224 C13.906,5.347 13.873,5.470 13.801,5.570 C13.711,5.643 13.597,5.681 13.481,5.677 L10.643,5.677 L10.643,7.436 L12.695,7.436 L12.695,6.610 C12.695,6.513 12.733,6.420 12.800,6.350 C12.867,6.281 12.959,6.240 13.055,6.237 C13.147,6.243 13.233,6.283 13.297,6.350 C13.361,6.416 13.398,6.504 13.402,6.596 C13.402,6.743 13.402,6.876 13.402,7.009 L13.402,7.449 L13.588,7.449 C13.674,7.455 13.756,7.492 13.817,7.554 C13.878,7.615 13.915,7.696 13.921,7.782 C13.923,7.869 13.895,7.953 13.842,8.021 C13.788,8.089 13.713,8.137 13.628,8.155 L10.643,8.155 L10.643,9.888 L12.695,9.888 L12.695,9.195 C12.689,9.128 12.689,9.061 12.695,8.995 C12.731,8.924 12.790,8.868 12.861,8.834 C12.933,8.800 13.014,8.790 13.091,8.807 C13.169,8.824 13.239,8.866 13.290,8.926 C13.341,8.987 13.371,9.062 13.375,9.141 C13.375,9.395 13.375,9.648 13.375,9.901 L13.588,9.901 C13.666,9.910 13.739,9.945 13.795,10.000 C13.851,10.056 13.886,10.129 13.895,10.207 C13.907,10.285 13.891,10.364 13.850,10.430 C13.808,10.497 13.743,10.545 13.668,10.567 C13.588,10.574 13.508,10.574 13.428,10.567 L10.617,10.567 L10.617,12.553 L12.669,12.553 L12.669,11.500 C12.665,11.452 12.671,11.404 12.687,11.359 C12.703,11.314 12.728,11.273 12.760,11.238 C12.793,11.203 12.832,11.175 12.876,11.156 C12.920,11.137 12.967,11.127 13.015,11.127 C13.065,11.127 13.114,11.137 13.159,11.157 C13.205,11.176 13.246,11.205 13.279,11.241 C13.313,11.278 13.339,11.321 13.355,11.367 C13.372,11.414 13.379,11.464 13.375,11.513 C13.375,11.647 13.375,11.780 13.375,11.913 L13.375,12.553 L14.667,12.513 L14.667,2.865 Z"/>
</svg>